<svg width="17" height="17" viewBox="0 0 17 17" fill="none" xmlns="http://www.w3.org/2000/svg">
<path d="M7.92519 0.553405C8.12264 0.0198008 8.87736 0.0198021 9.07481 0.553407L10.9681 5.66983C11.0301 5.83759 11.1624 5.96986 11.3302 6.03194L16.4466 7.92519C16.9802 8.12264 16.9802 8.87736 16.4466 9.07481L11.3302 10.9681C11.1624 11.0301 11.0301 11.1624 10.9681 11.3302L9.07481 16.4466C8.87736 16.9802 8.12264 16.9802 7.92519 16.4466L6.03194 11.3302C5.96986 11.1624 5.83759 11.0301 5.66983 10.9681L0.553405 9.07481C0.0198008 8.87736 0.0198021 8.12264 0.553407 7.92519L5.66983 6.03194C5.83759 5.96986 5.96986 5.83759 6.03194 5.66983L7.92519 0.553405Z" fill="#8348E4"/>
</svg>
